<?xml version="1.0" encoding="iso-8859-1"?>
<!-- Generator: Adobe Illustrator 19.0.0, SVG Export Plug-In . SVG Version: 6.00 Build 0)  -->
<svg version="1.1" id="Capa_1" xmlns="http://www.w3.org/2000/svg" xmlns:xlink="http://www.w3.org/1999/xlink" x="0px" y="0px"
	 viewBox="0 0 512.1 512.1" style="enable-background:new 0 0 512.1 512.1;" xml:space="preserve">
<path style="fill:#2196F3;" d="M384.1,0H149.4c-41.2,0-74.7,33.4-74.7,74.7v426.7c0,4.3,2.6,8.2,6.6,9.9c1.3,0.5,2.7,0.8,4.1,0.8
	c2.8,0,5.5-1.1,7.6-3.1l120.4-120.6c47.1,46.5,112.1,110.9,119.1,118.9c3.3,4.9,9.9,6.2,14.8,3c1.8-1.2,3.2-2.9,4-4.8
	c0.7-1.2,1-2.6,0.8-3.9v-448c0-17.7,14.3-32,32-32c5.9,0,10.7-4.8,10.7-10.7S390,0,384.1,0z"/>
<path style="fill:#1976D2;" d="M382.8,0L382.8,0c23.6,0,42.7,19.1,42.7,42.7v32c0,5.9-4.8,10.7-10.7,10.7h-74.7l0,0V42.7
	C340.1,19.1,359.2,0,382.8,0z"/>
<path d="M85.4,512c-5.9,0-10.7-4.8-10.7-10.7V74.7C74.8,33.4,108.2,0,149.4,0h234.7c5.9,0,10.7,4.8,10.7,10.7s-4.8,10.7-10.7,10.7
	c-17.7,0-32,14.3-32,32v448c0.2,1.4-0.1,2.8-0.7,4c-2.2,5.5-8.5,8.1-13.9,5.8c-2-0.8-3.7-2.2-4.9-4c-7-7.9-71.9-72.3-119.1-118.9
	L93,508.9C91,510.9,88.3,512,85.4,512z M149.4,21.3c-29.4,0-53.3,23.9-53.3,53.4v400.9l109.8-109.8c4.1-4.1,10.8-4.1,14.9,0
	c58.8,57.9,91.7,90.4,109.8,109.3V53.3c0-11.6,3.8-22.8,10.8-32H149.4z"/>
<path d="M426.8,85.3h-85.3c-5.9,0-10.7-4.8-10.7-10.7S335.5,64,341.4,64h74.7V53.3c0-17.7-14.3-32-32-32c-5.9,0-10.7-4.8-10.7-10.7
	S378.2,0,384.1,0c29.5,0,53.3,23.9,53.3,53.3v21.3C437.4,80.6,432.7,85.3,426.8,85.3z"/>
<g>
</g>
<g>
</g>
<g>
</g>
<g>
</g>
<g>
</g>
<g>
</g>
<g>
</g>
<g>
</g>
<g>
</g>
<g>
</g>
<g>
</g>
<g>
</g>
<g>
</g>
<g>
</g>
<g>
</g>
</svg>
