<svg id="Line_flaticon" height="512" viewBox="0 0 64 64" width="512" xmlns="http://www.w3.org/2000/svg" xmlns:xlink="http://www.w3.org/1999/xlink" data-name="Line flaticon"><linearGradient id="linear-gradient" gradientUnits="userSpaceOnUse" x1="4.003" x2="59.997" y1="32.001" y2="32.001"><stop offset="0" stop-color="#00c0ff"/><stop offset="1" stop-color="#5558ff"/></linearGradient><path d="m58.98926 21.62891-26.26953-11.10547a1.62379 1.62379 0 0 0 -1.28516-.00586l-5.62012 2.3501a.99977.99977 0 1 0 .77149 1.84472l5.4834-2.293 25.40625 10.74124-2.81759 1.19495-21.74589-3.36731a1.0001 1.0001 0 0 0 -.30664 1.97656l18.54162 2.871-2.92865 1.238c-.02368-.00171-.04388-.01373-.068-.01373a.98418.98418 0 0 0 -.75305.36084l-15.327 6.479-25.54109-10.77886 16.05761-6.72851a1.00015 1.00015 0 0 0 -.77343-1.84473l-16.81148 7.04492a1.664 1.664 0 0 0 -.999 1.54493 1.64734 1.64734 0 0 0 1.00879 1.51367l9.97851 4.21118v11.91724a3.25355 3.25355 0 0 0 1.43457 2.645 27.9746 27.9746 0 0 0 14.86913 4.8047c.248.00684.49414.00977.74121.00977a27.79552 27.79552 0 0 0 9.38079-1.62744 1 1 0 0 0 -.67188-1.88379 25.758 25.758 0 0 1 -23.18165-2.94776 1.23845 1.23845 0 0 1 -.57226-1.00048v-11.07319l14.42779 6.08881a1.63436 1.63436 0 0 0 .65625.13721 1.57773 1.57773 0 0 0 .63574-.13184l14.44043-6.10431v11.07353a1.28215 1.28215 0 0 1 -.60254 1.03271c-.61328.417-1.26855.81739-1.94922 1.19092a1 1 0 1 0 .96289 1.75293c.73536-.40332 1.44532-.8374 2.11817-1.29443a3.25777 3.25777 0 0 0 1.47067-2.68213v-11.919l4.63086-1.95752v13.20235a3.6002 3.6002 0 0 0 -2.19434 3.58337 4.45283 4.45283 0 0 0 .51154 2.116l-1.47245 6.60031a.99995.99995 0 0 0 1.57422 1.019 4.2024 4.2024 0 0 1 5.05761.001 1.00039 1.00039 0 0 0 1.55957-1.07569l-1.8674-6.57499a4.47183 4.47183 0 0 0 .49243-2.08563 3.82749 3.82749 0 0 0 -1.66113-3.34363v-14.28393l3.20215-1.35828a1.6667 1.6667 0 0 0 .00586-3.06445zm-4.47461 20.34033c.42871 0 .92773.74707.92773 1.71s-.499 1.71-.92773 1.71-.92774-.74707-.92774-1.71.49903-1.71.92774-1.71zm1.77835 8.80322a6.45851 6.45851 0 0 0 -1.68555-.20264 6.13277 6.13277 0 0 0 -1.5791.23975l.78815-3.53345a2.19343 2.19343 0 0 0 1.47491-.03027zm-32.09671-9.88086a1 1 0 1 1 0 2h-.19629a4.77481 4.77481 0 0 1 -5-4.499 1 1 0 0 1 2 0 2.78727 2.78727 0 0 0 3 2.499z" fill="url(#linear-gradient)"/></svg>