<svg id="Layer_1" enable-background="new 0 0 512 512" height="512" viewBox="0 0 512 512" width="512" xmlns="http://www.w3.org/2000/svg"><g><path d="m256.007 379.096c-58.628 0-113.751-22.832-155.213-64.289-2.813-2.813-4.394-6.629-4.394-10.607v-144.601c0-4.821 2.318-9.35 6.229-12.169s8.941-3.586 13.514-2.062l139.857 46.62 139.856-46.619c4.576-1.522 9.603-.757 13.514 2.062 3.912 2.819 6.229 7.348 6.229 12.169v144.6c0 3.978-1.58 7.793-4.393 10.605-41.452 41.459-96.569 64.291-155.199 64.291z" fill="#13bebe"/><path d="m411.208 314.805c2.813-2.813 4.393-6.628 4.393-10.605v-144.601c0-4.821-2.318-9.35-6.229-12.169-3.911-2.818-8.938-3.584-13.514-2.062l-139.858 46.62v187.108h.007c58.63 0 113.747-22.832 155.201-64.291z" fill="#0f7878"/><path d="m464.867 367.4c-8.284 0-15-6.716-15-15v-209.937c0-8.284 6.716-15 15-15s15 6.716 15 15v209.937c0 8.284-6.716 15-15 15z" fill="#0f7878"/><path d="m497 479.866h-64.267c-8.284 0-15-6.716-15-15v-80.333c0-25.989 21.144-47.133 47.133-47.133s47.134 21.144 47.134 47.133v80.333c0 8.284-6.716 15-15 15z" fill="#fcf9f7"/><path d="m256 222.8c-1.602 0-3.204-.257-4.743-.77l-241-80.333c-6.126-2.042-10.257-7.774-10.257-14.23s4.131-12.188 10.257-14.23l241-80.333c3.078-1.025 6.408-1.025 9.486 0l241 80.333c6.125 2.042 10.257 7.774 10.257 14.23s-4.131 12.188-10.257 14.23l-241 80.333c-1.539.513-3.141.77-4.743.77z" fill="#95f0e1"/><path d="m501.743 141.697c6.125-2.042 10.257-7.774 10.257-14.23s-4.131-12.188-10.257-14.23l-241-80.333c-1.539-.513-3.141-.769-4.743-.769v190.665c1.602 0 3.204-.257 4.743-.77z" fill="#13bebe"/><path d="m497 479.866c8.284 0 15-6.716 15-15v-80.333c0-25.989-21.144-47.133-47.133-47.133v142.466z" fill="#f9edec"/></g></svg>