<svg height="512" viewBox="0 0 64 64" width="512" xmlns="http://www.w3.org/2000/svg" xmlns:xlink="http://www.w3.org/1999/xlink"><linearGradient id="lg1"><stop offset="0" stop-color="#12c2e9"/><stop offset=".0892" stop-color="#2bb7ea"/><stop offset=".2793" stop-color="#6c99eb"/><stop offset=".5145" stop-color="#c471ed"/><stop offset=".8471" stop-color="#e65a89"/><stop offset="1" stop-color="#f64f59"/></linearGradient><linearGradient id="SVGID_1_" gradientUnits="userSpaceOnUse" x1="6.239" x2="70.224" xlink:href="#lg1" y1="67.761" y2="3.776"/><linearGradient id="SVGID_2_" gradientUnits="userSpaceOnUse" x1="-3.878" x2="59.993" xlink:href="#lg1" y1="57.6" y2="-6.271"/><g id="icon"><g><path d="m16 42c0 8.822 7.178 16 16 16s16-7.178 16-16-7.178-16-16-16-16 7.178-16 16zm30 0c0 7.72-6.28 14-14 14s-14-6.28-14-14 6.28-14 14-14 14 6.28 14 14z" fill="url(#SVGID_1_)"/><path d="m60 3h-56c-.553 0-1 .448-1 1s.447 1 1 1h3v11c0 .489.354.906.836.986l23.164 3.861v2.204c-10.011.525-18 8.81-18 18.949 0 10.477 8.523 19 19 19s19-8.523 19-19c0-10.139-7.989-18.424-18-18.949v-2.204l23.164-3.861c.482-.08.836-.497.836-.986v-11h3c.553 0 1-.448 1-1s-.447-1-1-1zm-29 15.82-14-2.333v-11.487h14zm2-13.82h14v11.486l-14 2.334zm-24 0h6v11.153l-6-1zm40 37c0 9.374-7.626 17-17 17s-17-7.626-17-17 7.626-17 17-17 17 7.626 17 17zm6-26.847-6 1v-11.153h6z" fill="url(#SVGID_2_)"/></g></g></svg>