<svg enable-background="new 0 0 512 512" viewBox="0 0 512 512" xmlns="http://www.w3.org/2000/svg" xmlns:xlink="http://www.w3.org/1999/xlink"><linearGradient id="SVGID_1_" gradientUnits="userSpaceOnUse" x1="83.793" x2="428.208" y1="428.209" y2="83.794"><stop offset="0" stop-color="#b429f9"/><stop offset=".9955" stop-color="#26c5f3"/></linearGradient><g id="_x30_8_Quality"><path d="m408.893 256.001c0 7.911-.607 15.842-1.806 23.578-.546 3.534-3.835 5.955-7.392 5.409-3.534-.549-5.955-3.858-5.409-7.392 1.098-7.081 1.655-14.347 1.655-21.595 0-77.164-62.776-139.94-139.94-139.94-77.161 0-139.938 62.776-139.938 139.94s62.775 139.94 139.937 139.94c43.519 0 83.815-19.733 110.558-54.142 2.193-2.821 6.261-3.334 9.087-1.138 2.823 2.193 3.334 6.264 1.138 9.087-29.215 37.589-73.237 59.146-120.784 59.146-84.303 0-152.89-68.587-152.89-152.893s68.588-152.893 152.891-152.893c84.305 0 152.893 68.587 152.893 152.893zm-66.142-80.554c10.441 8.602 11.936 24.092 3.337 34.533l-102.621 124.607c-8.16 9.91-23.288 10.125-31.715.41-.003 0-.003 0-.003-.003l-45.431-52.376c-8.89-10.241-7.782-25.731 2.459-34.611 10.369-8.996 25.827-7.671 34.611 2.459l23.487 27.082 81.338-98.761c8.623-10.471 24.073-11.958 34.538-3.34zm-24.539 11.574-86.208 104.674c-1.212 1.472-3.011 2.335-4.916 2.36-1.956-.03-3.729-.794-4.976-2.234l-28.509-32.871c-4.213-4.854-11.527-5.331-16.34-1.159-4.844 4.204-5.348 11.517-1.159 16.338l45.431 52.379c3.419 3.938 9.056 3.335 11.933-.154l102.622-124.609c4.06-4.928 3.352-12.24-1.576-16.3-5.001-4.122-12.281-3.309-16.302 1.576zm172.282 28.413c20.634 23.164 20.639 57.942.106 81.012l-.076.089c-10.064 11.298-14.225 26.837-11.162 41.606 6.299 30.366-11.129 60.517-40.524 70.199-14.367 4.731-25.772 16.133-30.505 30.5-9.682 29.395-39.843 46.818-70.138 40.536-14.815-3.074-30.364 1.085-41.629 11.116-23.178 20.65-57.967 20.635-81.029.089-11.369-10.122-26.908-14.284-41.677-11.217-30.356 6.299-60.517-11.131-70.199-40.526-4.728-14.37-16.13-25.772-30.5-30.5-29.397-9.687-46.823-39.84-40.534-70.141 3.076-14.823-1.085-30.366-11.119-41.629-20.641-23.171-20.641-57.962-.089-81.032 10.122-11.367 14.284-26.905 11.22-41.675-6.297-30.364 11.129-60.517 40.524-70.199 14.367-4.731 25.772-16.133 30.505-30.5 9.679-29.395 39.835-46.831 70.136-40.536 14.835 3.076 30.374-1.088 41.632-11.116 23.171-20.649 57.959-20.641 81.029-.089 11.369 10.125 26.92 14.279 41.675 11.217 30.364-6.274 60.522 11.131 70.202 40.526 4.728 14.37 16.13 25.772 30.498 30.5 29.397 9.684 46.823 39.84 40.536 70.141-3.078 14.823 1.084 30.366 11.118 41.629zm-9.584 8.718c-12.837-14.413-18.124-34.161-14.231-52.922 4.961-23.905-8.753-47.638-31.892-55.263-18.256-6.008-32.742-20.495-38.753-38.75-7.62-23.138-31.358-36.853-55.202-31.907-18.827 3.899-38.573-1.379-52.882-14.127-18.258-16.267-45.647-16.265-63.798-.094-14.413 12.837-34.161 18.119-52.925 14.233-23.905-4.956-47.64 8.753-55.258 31.892-6.014 18.253-20.5 32.739-38.753 38.75-23.138 7.62-36.855 31.353-31.907 55.204 3.904 18.825-1.384 38.57-14.132 52.879-16.265 18.261-16.265 45.644-.091 63.801 12.842 14.413 18.127 34.161 14.233 52.922-4.961 23.905 8.753 47.638 31.892 55.263 18.253 6.008 32.742 20.495 38.753 38.748 7.617 23.138 31.345 36.868 55.202 31.909 18.776-3.897 38.53 1.346 52.882 14.127 18.258 16.267 45.647 16.265 63.798.094 14.41-12.837 34.156-18.116 52.925-14.233 23.912 4.986 47.643-8.751 55.258-31.892 6.014-18.253 20.5-32.739 38.753-38.75 23.138-7.62 36.855-31.353 31.907-55.202-3.698-17.836.461-36.868 14.22-52.986 16.177-18.155 16.177-45.539.001-63.696z" fill="url(#SVGID_1_)"/></g><g id="Layer_1"/></svg>